<svg enable-background="new 0 0 19.196 19.196" height="20" viewBox="0 0 19.196 19.196" width="20" xmlns="http://www.w3.org/2000/svg"><circle cx="9.598" cy="9.598" fill="#1e7ec1" r="9.098"/><path d="m9.598 19.196c-5.292 0-9.598-4.306-9.598-9.598s4.306-9.598 9.598-9.598 9.598 4.306 9.598 9.598-4.306 9.598-9.598 9.598zm0-18.196c-4.741 0-8.598 3.857-8.598 8.598s3.857 8.598 8.598 8.598 8.598-3.857 8.598-8.598-3.857-8.598-8.598-8.598z" fill="#1e7ec1"/><path d="m13.31 8.245c.249 3.024-7.09 3.328-7.64.682-.453-2.18 1.726-3.188 3.96-3.155 1.628.024 3.543.812 3.68 2.473z" fill="#fcf1d5"/><path d="m9.309 11.228c-1.949 0-3.823-.731-4.128-2.2-.185-.887-.004-1.693.524-2.332.758-.917 2.222-1.45 3.933-1.424 1.955.029 4.015 1.046 4.17 2.932.123 1.496-1.175 2.625-3.388 2.945-.366.053-.74.079-1.111.079zm.214-4.957c-1.342 0-2.503.403-3.047 1.062-.337.408-.44.895-.316 1.492.233 1.12 2.317 1.595 4.117 1.334 1.226-.177 2.625-.774 2.535-1.873-.119-1.445-1.972-1.996-3.189-2.014-.034-.001-.067-.001-.1-.001z" fill="#fcf1d5"/><circle cx="9.56" cy="8.049" r="1.275"/><path d="m9.56 10.324c-1.254 0-2.275-1.021-2.275-2.275s1.021-2.275 2.275-2.275 2.275 1.021 2.275 2.275-1.021 2.275-2.275 2.275zm0-2.55c-.152 0-.275.123-.275.275 0 .303.55.303.55 0 0-.151-.124-.275-.275-.275z"/><path d="m7.577 5.919c-.717 0-1.351-.033-1.802-.101-.273-.041-.461-.296-.419-.569.041-.273.297-.461.569-.419 1.359.206 5.148.056 6.783-.466.263-.084.544.061.629.324.084.263-.061.544-.324.628-1.212.387-3.596.603-5.436.603z"/></svg>